<svg width="18" height="18" viewBox="0 0 18 18" fill="none" xmlns="http://www.w3.org/2000/svg">
<g clip-path="url(#clip0_2431_7790)">
<path d="M9.00008 10.6899C9.93275 10.6899 10.6888 9.93378 10.6888 9.00112C10.6888 8.06845 9.93275 7.31238 9.00008 7.31238C8.06742 7.31238 7.31134 8.06845 7.31134 9.00112C7.31134 9.93378 8.06742 10.6899 9.00008 10.6899Z" fill="url(#paint0_linear_2431_7790)"/>
<path d="M16.5368 10.5477L16.5203 10.5343L15.4107 9.66419C15.3405 9.60861 15.2844 9.53715 15.2471 9.45568C15.2098 9.37422 15.1924 9.28507 15.1963 9.19556V8.78916C15.1928 8.70022 15.2104 8.61171 15.2477 8.53092C15.2851 8.45012 15.3411 8.37934 15.4111 8.32439L16.5203 7.45392L16.5368 7.44056C16.7079 7.29806 16.8226 7.09936 16.8607 6.87998C16.8987 6.66061 16.8574 6.43487 16.7442 6.24314L15.2427 3.64509C15.241 3.64264 15.2394 3.64005 15.2381 3.63736C15.1243 3.44827 14.9479 3.30501 14.7395 3.23244C14.5311 3.15987 14.3039 3.16257 14.0973 3.24009L14.085 3.24466L12.7807 3.76954C12.6984 3.80283 12.6093 3.81608 12.5209 3.80819C12.4324 3.80031 12.3471 3.77152 12.272 3.72419C12.1567 3.65154 12.0395 3.58286 11.9204 3.51818C11.8432 3.47632 11.777 3.4169 11.7269 3.34472C11.6769 3.27254 11.6446 3.18961 11.6325 3.10263L11.436 1.71079L11.4318 1.68548C11.389 1.4699 11.2733 1.27562 11.1041 1.13528C10.935 0.994947 10.7227 0.917111 10.5029 0.914856H7.49637C7.2735 0.915569 7.05803 0.994913 6.88793 1.13891C6.71782 1.2829 6.60399 1.48231 6.56648 1.702L6.56332 1.72169L6.3675 3.11634C6.35549 3.20307 6.32339 3.2858 6.27377 3.35794C6.22415 3.43009 6.15838 3.48965 6.08168 3.53189C5.96145 3.59658 5.84402 3.66513 5.73012 3.7365C5.65512 3.78353 5.57003 3.8121 5.48184 3.81986C5.39365 3.82763 5.30488 3.81436 5.22281 3.78115L3.91746 3.2538L3.90516 3.24888C3.69825 3.17128 3.47068 3.16867 3.26205 3.24151C3.05342 3.31436 2.87693 3.45803 2.76328 3.64755L2.75871 3.65529L1.25508 6.25509C1.14175 6.44702 1.10038 6.67301 1.13838 6.89264C1.17638 7.11227 1.29127 7.31122 1.4625 7.45392L1.47903 7.46728L2.58856 8.3374C2.65882 8.39298 2.7149 8.46444 2.75218 8.54591C2.78946 8.62737 2.80688 8.71652 2.80301 8.80603V9.21244C2.80653 9.30138 2.7889 9.38988 2.75155 9.47068C2.71421 9.55147 2.65823 9.62225 2.58821 9.6772L1.47903 10.5477L1.4625 10.561C1.29144 10.7035 1.17665 10.9022 1.13865 11.1216C1.10065 11.341 1.14192 11.5667 1.25508 11.7585L2.7566 14.3565C2.75833 14.359 2.75986 14.3615 2.76117 14.3642C2.87495 14.5533 3.05135 14.6966 3.25975 14.7692C3.46815 14.8417 3.69538 14.839 3.90199 14.7615L3.9143 14.7569L5.21754 14.232C5.29986 14.1988 5.38892 14.1855 5.47736 14.1934C5.56581 14.2013 5.65111 14.2301 5.72625 14.2774C5.84156 14.3503 5.95875 14.419 6.07781 14.4834C6.15501 14.5253 6.22129 14.5847 6.2713 14.6569C6.32131 14.7291 6.35367 14.812 6.36574 14.899L6.56121 16.2908L6.56543 16.3161C6.60829 16.532 6.72428 16.7266 6.89386 16.867C7.06344 17.0073 7.27623 17.085 7.49637 17.0867H10.5029C10.7258 17.086 10.9413 17.0067 11.1114 16.8627C11.2815 16.7187 11.3953 16.5193 11.4328 16.2996L11.436 16.2799L11.6318 14.8853C11.644 14.7984 11.6764 14.7155 11.7263 14.6434C11.7762 14.5712 11.8423 14.5117 11.9194 14.4697C12.0396 14.405 12.157 14.3365 12.2709 14.2651C12.3459 14.2181 12.431 14.1895 12.5192 14.1817C12.6074 14.174 12.6962 14.1872 12.7782 14.2204L14.0836 14.746L14.0959 14.751C14.3028 14.8287 14.5304 14.8314 14.7391 14.7585C14.9477 14.6857 15.1242 14.5419 15.2378 14.3523C15.2392 14.3496 15.2407 14.347 15.2423 14.3445L16.7439 11.7469C16.8574 11.5549 16.8989 11.3289 16.861 11.1092C16.823 10.8894 16.7081 10.6904 16.5368 10.5477ZM11.809 9.13298C11.7834 9.67741 11.6001 10.2027 11.2816 10.6449C10.963 11.0871 10.5228 11.4272 10.0145 11.6239C9.50616 11.8206 8.95167 11.8653 8.41841 11.7527C7.88515 11.64 7.3961 11.3749 7.01073 10.9895C6.62537 10.6041 6.36028 10.115 6.24772 9.58172C6.13516 9.04845 6.17997 8.49396 6.3767 7.98568C6.57343 7.4774 6.91361 7.03723 7.35586 6.7187C7.79811 6.40017 8.32339 6.217 8.86781 6.19146C9.25867 6.17425 9.64882 6.23856 10.0135 6.3803C10.3781 6.52204 10.7093 6.73811 10.9859 7.01477C11.2625 7.29143 11.4786 7.62263 11.6203 7.9873C11.762 8.35197 11.8262 8.74213 11.809 9.13298Z" fill="url(#paint1_linear_2431_7790)"/>
</g>
<defs>
<linearGradient id="paint0_linear_2431_7790" x1="7.31134" y1="7.31238" x2="10.6888" y2="10.6899" gradientUnits="userSpaceOnUse">
<stop stop-color="#304FBE"/>
<stop offset="1" stop-color="#182B88"/>
</linearGradient>
<linearGradient id="paint1_linear_2431_7790" x1="1.12463" y1="0.914856" x2="17.2909" y2="16.6594" gradientUnits="userSpaceOnUse">
<stop stop-color="#304FBE"/>
<stop offset="1" stop-color="#182B88"/>
</linearGradient>
<clipPath id="clip0_2431_7790">
<rect width="18" height="18" fill="white"/>
</clipPath>
</defs>
</svg>
