<svg width="28" height="28" viewBox="0 0 28 28" fill="none" xmlns="http://www.w3.org/2000/svg">
<path d="M24.501 18.6683V9.32983C24.5006 9.02418 24.4202 8.72396 24.2678 8.45905C24.1153 8.19414 23.8961 7.97378 23.632 7.81991L15.3195 2.98225C14.919 2.74909 14.4639 2.62625 14.0005 2.62625C13.537 2.62625 13.0819 2.74909 12.6814 2.98225L4.36999 7.81991C4.1059 7.97378 3.88672 8.19414 3.73426 8.45905C3.5818 8.72396 3.50138 9.02418 3.50101 9.32983V18.6683C3.50119 18.9741 3.58152 19.2745 3.73399 19.5397C3.88646 19.8048 4.10574 20.0253 4.36999 20.1793L12.6825 25.0169C13.0831 25.2498 13.5382 25.3724 14.0016 25.3724C14.4649 25.3724 14.92 25.2498 15.3206 25.0169L23.6331 20.1793C23.8972 20.0252 24.1162 19.8046 24.2685 19.5395C24.4208 19.2744 24.5009 18.974 24.501 18.6683Z" stroke="#304FBE" stroke-width="2" stroke-linecap="round" stroke-linejoin="round"/>
<path d="M3.77332 8.42157L13.9999 14.4372L24.2264 8.42157" stroke="#304FBE" stroke-width="2" stroke-linecap="round" stroke-linejoin="round"/>
<path d="M14.0001 25.3756V14.4366" stroke="#304FBE" stroke-width="2" stroke-linecap="round" stroke-linejoin="round"/>
</svg>
