<svg width="48" height="16" viewBox="0 0 48 16" fill="none" xmlns="http://www.w3.org/2000/svg">
<path d="M3.19511 6.15181V10.6579C3.19511 11.2763 2.70553 11.7788 2.10298 11.7788H1.05446V6.15181H0V4.23547H1.05446V2.87451C1.05446 1.05175 2.30515 0 3.76594 0C4.2793 0 4.72923 0.0915448 5.10583 0.264463L4.4121 2.1035C4.27732 2.02619 4.11082 1.98144 3.94631 1.98144C3.46467 1.98144 3.19511 2.36796 3.19511 3.03115V4.23751H4.74509V6.15385H3.19511V6.15181Z" fill="#14141B"/>
<path d="M5.70045 7.99254C5.70045 5.75274 7.38918 4.06628 9.54369 4.06628C11.6982 4.06628 13.383 5.75274 13.383 7.99254C13.383 10.2344 11.6982 11.9188 9.54369 11.9188C7.38918 11.9188 5.70045 10.2323 5.70045 7.99254ZM11.3196 7.99254C11.3196 6.84721 10.612 5.9989 9.54171 5.9989C8.45752 5.9989 7.74992 6.84925 7.74992 7.99254C7.74992 9.15211 8.48725 10.0025 9.54171 10.0025C10.612 10.0004 11.3196 9.15007 11.3196 7.99254Z" fill="#14141B"/>
<path d="M16.0548 7.94381L13.6307 4.23523H15.4086C15.7753 4.23523 16.1163 4.42239 16.3184 4.73567L17.034 5.84235C17.2163 6.13529 17.3947 6.53809 17.3947 6.53809C17.3947 6.53809 17.5612 6.12105 17.7416 5.84235L18.796 4.23523H21.1606L18.7207 7.94381L21.2657 11.7785H19.5016C19.135 11.7785 18.794 11.5914 18.5919 11.2781L17.7554 9.98628C17.5612 9.70961 17.4105 9.39836 17.3947 9.3536C17.3788 9.38412 17.2599 9.67706 17.0637 9.98628L15.8744 11.7806H13.5237L16.0548 7.94381Z" fill="#14141B"/>
<path d="M22.3895 10.0354C22.7225 9.63669 23.2755 9.54107 23.7314 9.77909C24.1575 9.9988 24.6412 10.0964 25.0832 10.0964C25.5331 10.0964 25.8681 9.90929 25.8681 9.63058C25.8681 9.24406 25.4895 9.05894 24.8731 8.87381C23.7274 8.53205 22.3122 7.88513 22.3122 6.35531C22.3122 4.90077 23.6818 4.08093 24.9167 4.08093C26.0326 4.08093 26.8155 4.46746 27.4775 5.17947L26.3041 6.47737C25.987 6.1234 25.3983 5.79791 24.9623 5.79791C24.5698 5.79791 24.2824 5.98507 24.2824 6.27597C24.2824 6.64622 24.7026 6.83338 25.3666 7.03275C26.4785 7.37248 27.9116 8.08449 27.9116 9.52073C27.9116 10.9407 26.7223 11.9314 25.0633 11.9314C23.7413 11.9314 22.6551 11.5469 21.8563 10.664L22.3895 10.0354Z" fill="#14141B"/>
<path d="M31.2514 10.9424L28.5102 4.23523H29.9928C30.4348 4.23523 30.8351 4.50986 31.0036 4.92894L32.1393 7.75869C32.2642 8.06791 32.3673 8.48698 32.3812 8.5297C32.3812 8.50122 32.5199 8.08418 32.6527 7.75869L34.1294 4.23523H36.3592L31.5784 15.3142C31.3981 15.7312 30.9957 15.9998 30.5517 15.9998H29.081L31.2514 10.9424Z" fill="#14141B"/>
<path d="M37.0926 10.0353C37.4255 9.63652 37.9785 9.54091 38.4344 9.77689C38.8606 9.99863 39.3442 10.0942 39.7882 10.0942C40.2381 10.0942 40.5711 9.90709 40.5711 9.62839C40.5711 9.24186 40.1925 9.05674 39.5761 8.87162C38.4324 8.52985 37.0172 7.88293 37.0172 6.35312C37.0172 4.89857 38.3868 4.07874 39.6217 4.07874C40.7376 4.07874 41.5225 4.46526 42.1825 5.17727L41.0072 6.47518C40.692 6.1212 40.1053 5.79571 39.6693 5.79571C39.2768 5.79571 38.9934 5.98287 38.9934 6.27378C38.9934 6.64403 39.4136 6.83118 40.0776 7.03055C41.1895 7.37028 42.6206 8.0823 42.6206 9.52057C42.6206 10.9405 41.4313 11.9312 39.7743 11.9312C38.4503 11.9312 37.3681 11.5468 36.5673 10.6639L37.0926 10.0353Z" fill="#14141B"/>
<path d="M45.4807 3.72652C46.1724 3.01654 46.1724 1.86307 45.4807 1.15309C44.787 0.44311 43.6651 0.44311 42.9714 1.15309C42.2796 1.86307 42.2796 3.01654 42.9714 3.72652C43.6651 4.4365 44.789 4.4365 45.4807 3.72652Z" fill="#76B82F"/>
</svg>
