<svg width="26" height="26" viewBox="0 0 26 26" fill="none" xmlns="http://www.w3.org/2000/svg">
<path d="M10.9269 8.14211C10.9269 8.85305 10.9269 9.54211 11.1511 10.1874C8.79409 12.9546 2.57065 20.2663 1.99096 20.8241C1.87575 20.9275 1.78359 21.054 1.72046 21.1953C1.65733 21.3366 1.62466 21.4897 1.62456 21.6445C1.62456 22.1093 1.90893 22.5577 2.14956 22.8093C2.5105 23.1866 4.05268 24.614 4.33706 24.3405C5.17925 23.5202 5.34878 23.3015 5.69331 22.9624C6.21284 22.4538 5.63862 21.4148 5.81909 20.9937C5.99956 20.5726 6.19096 20.4905 6.50268 20.4249C6.8144 20.3593 7.36675 20.5835 7.79878 20.589C8.25268 20.5945 8.49878 20.403 8.83784 20.0859C9.11128 19.8343 9.30815 19.5991 9.31362 19.2327C9.32456 18.7405 8.61362 18.0898 9.14409 17.5702C9.67456 17.0507 10.4402 17.9093 11.0035 17.8437C11.5667 17.778 12.2503 16.996 12.3214 16.6624C12.3925 16.3288 11.6816 15.4702 11.791 14.9835C11.8292 14.8195 12.1628 14.4366 12.4144 14.382C12.666 14.3273 13.7816 14.7593 14.0332 14.7046C14.3394 14.639 14.6949 14.3163 14.9847 14.1359C15.8324 14.5023 16.6035 14.6499 17.5933 14.6499C21.3394 14.6499 24.3746 11.7296 24.3746 8.13117C24.3746 4.53273 21.3394 1.625 17.5933 1.625C13.8472 1.625 10.9269 4.54367 10.9269 8.14211ZM20.8746 6.875C20.8746 7.22112 20.7719 7.55946 20.5796 7.84725C20.3873 8.13503 20.114 8.35934 19.7943 8.49179C19.4745 8.62424 19.1226 8.6589 18.7832 8.59137C18.4437 8.52385 18.1319 8.35718 17.8871 8.11244C17.6424 7.86769 17.4757 7.55587 17.4082 7.21641C17.3407 6.87694 17.3753 6.52507 17.5078 6.2053C17.6402 5.88553 17.8645 5.61222 18.1523 5.41993C18.4401 5.22764 18.7784 5.125 19.1246 5.125C19.5887 5.125 20.0338 5.30937 20.362 5.63756C20.6902 5.96575 20.8746 6.41087 20.8746 6.875Z" stroke="#304FBE" stroke-width="2" stroke-linejoin="round"/>
</svg>
