<svg width="18" height="18" viewBox="0 0 18 18" fill="none" xmlns="http://www.w3.org/2000/svg">
<path d="M11.8131 13.2189V9.56262H6.7154C6.56621 9.56262 6.42314 9.50336 6.31765 9.39787C6.21216 9.29238 6.1529 9.14931 6.1529 9.00012C6.1529 8.85094 6.21216 8.70787 6.31765 8.60238C6.42314 8.49689 6.56621 8.43762 6.7154 8.43762H11.8131V4.78137C11.8125 4.2594 11.6049 3.75896 11.2358 3.38987C10.8667 3.02078 10.3663 2.81318 9.84431 2.81262H3.0943C2.57233 2.81318 2.07189 3.02078 1.7028 3.38987C1.33371 3.75896 1.12611 4.2594 1.12555 4.78137V13.2189C1.12611 13.7408 1.33371 14.2413 1.7028 14.6104C2.07189 14.9795 2.57233 15.1871 3.0943 15.1876H9.84431C10.3663 15.1871 10.8667 14.9795 11.2358 14.6104C11.6049 14.2413 11.8125 13.7408 11.8131 13.2189Z" fill="url(#paint0_linear_2431_7794)"/>
<path d="M14.9541 9.56325L13.1018 11.4159C13.0008 11.5223 12.9453 11.6639 12.9472 11.8106C12.949 11.9573 13.0081 12.0975 13.1119 12.2012C13.2156 12.3049 13.3558 12.364 13.5025 12.3659C13.6492 12.3678 13.7908 12.3123 13.8972 12.2112L16.7101 9.39835C16.8155 9.29285 16.8747 9.14981 16.8747 9.00067C16.8747 8.85153 16.8155 8.70849 16.7101 8.603L13.8972 5.7901C13.7908 5.68905 13.6492 5.63354 13.5025 5.63542C13.3558 5.6373 13.2156 5.69641 13.1119 5.80015C13.0081 5.90389 12.949 6.04405 12.9472 6.19075C12.9453 6.33745 13.0008 6.47908 13.1018 6.58545L14.9541 8.43809H11.8118V9.56325H14.9541Z" fill="url(#paint1_linear_2431_7794)"/>
<defs>
<linearGradient id="paint0_linear_2431_7794" x1="1.12555" y1="2.81262" x2="13.3687" y2="13.3863" gradientUnits="userSpaceOnUse">
<stop stop-color="#304FBE"/>
<stop offset="1" stop-color="#182B88"/>
</linearGradient>
<linearGradient id="paint1_linear_2431_7794" x1="11.8118" y1="5.63538" x2="18.2785" y2="10.4998" gradientUnits="userSpaceOnUse">
<stop stop-color="#304FBE"/>
<stop offset="1" stop-color="#182B88"/>
</linearGradient>
</defs>
</svg>
