<svg width="28" height="28" viewBox="0 0 28 28" fill="none" xmlns="http://www.w3.org/2000/svg">
<path d="M4.37373 11.5933V24.4995C4.37373 24.7316 4.46592 24.9541 4.63002 25.1182C4.79411 25.2823 5.01667 25.3745 5.24873 25.3745H10.4987V17.937C10.4987 17.5889 10.637 17.2551 10.8832 17.0089C11.1293 16.7628 11.4631 16.6245 11.8112 16.6245H16.1862C16.5343 16.6245 16.8682 16.7628 17.1143 17.0089C17.3605 17.2551 17.4987 17.5889 17.4987 17.937V25.3745H22.7487C22.9808 25.3745 23.2034 25.2823 23.3675 25.1182C23.5316 24.9541 23.6237 24.7316 23.6237 24.4995V11.5933" stroke="#304FBE" stroke-width="2" stroke-linecap="round" stroke-linejoin="round"/>
<path d="M26.2497 13.999L14.5952 2.84276C14.3218 2.55401 13.6825 2.55073 13.4041 2.84276L1.74969 13.999" stroke="#304FBE" stroke-width="2" stroke-linecap="round" stroke-linejoin="round"/>
<path d="M21.8755 9.79083V3.49921H19.2494V7.27418" stroke="#304FBE" stroke-width="2" stroke-linecap="round" stroke-linejoin="round"/>
</svg>
