<svg width="29" height="28" viewBox="0 0 29 28" fill="none" xmlns="http://www.w3.org/2000/svg">
<path d="M5.28527 20.7804C5.35035 20.5409 5.20652 20.2079 5.06926 19.9678C5.02652 19.8962 4.98016 19.8268 4.93035 19.76C3.75307 17.9746 3.12559 15.8829 3.12566 13.7443C3.10652 7.60566 8.19684 2.62418 14.4914 2.62418C19.9809 2.62418 24.5632 6.42715 25.6339 11.4753C25.7944 12.2238 25.8754 12.9871 25.8757 13.7525C25.8757 19.9 20.9817 24.9596 14.6871 24.9596C13.6864 24.9596 12.3356 24.7081 11.5989 24.5019C10.8623 24.2957 10.1268 24.0223 9.93699 23.949C9.74291 23.8744 9.53679 23.8361 9.32887 23.8358C9.10176 23.835 8.87683 23.8802 8.6677 23.9687L4.95824 25.3075C4.87698 25.3425 4.79087 25.365 4.70285 25.3742C4.6334 25.374 4.56467 25.36 4.50066 25.333C4.43665 25.3061 4.37863 25.2667 4.32995 25.2171C4.28127 25.1676 4.24291 25.1089 4.21708 25.0444C4.19126 24.9799 4.17848 24.911 4.17949 24.8415C4.18405 24.7806 4.19505 24.7203 4.21231 24.6616L5.28527 20.7804Z" stroke="#304FBE" stroke-width="2" stroke-miterlimit="10" stroke-linecap="round"/>
</svg>
