<svg width="24" height="24" viewBox="0 0 24 24" fill="none" xmlns="http://www.w3.org/2000/svg">
<path d="M9.92777 7.14217C9.92777 7.85311 9.92777 8.54217 10.152 9.18748C7.79495 11.9547 1.57151 19.2664 0.991826 19.8242C0.876615 19.9276 0.784449 20.054 0.721322 20.1954C0.658194 20.3367 0.625519 20.4897 0.62542 20.6445C0.62542 21.1094 0.909795 21.5578 1.15042 21.8094C1.51136 22.1867 3.05355 23.614 3.33792 23.3406C4.18011 22.5203 4.34964 22.3015 4.69417 21.9625C5.2137 21.4539 4.63948 20.4148 4.81995 19.9937C5.00042 19.5726 5.19183 19.4906 5.50355 19.425C5.81526 19.3594 6.36761 19.5836 6.79964 19.589C7.25355 19.5945 7.49964 19.4031 7.8387 19.0859C8.11214 18.8344 8.30902 18.5992 8.31448 18.2328C8.32542 17.7406 7.61448 17.0898 8.14495 16.5703C8.67542 16.0508 9.44105 16.9094 10.0043 16.8437C10.5676 16.7781 11.2512 15.9961 11.3223 15.6625C11.3934 15.3289 10.6825 14.4703 10.7918 13.9836C10.8301 13.8195 11.1637 13.4367 11.4153 13.382C11.6668 13.3273 12.7825 13.7594 13.034 13.7047C13.3403 13.639 13.6957 13.3164 13.9856 13.1359C14.8332 13.5023 15.6043 13.65 16.5942 13.65C20.3403 13.65 23.3754 10.7297 23.3754 7.13123C23.3754 3.5328 20.3403 0.625061 16.5942 0.625061C12.8481 0.625061 9.92777 3.54373 9.92777 7.14217ZM19.8754 5.87506C19.8754 6.22118 19.7728 6.55952 19.5805 6.84731C19.3882 7.13509 19.1149 7.3594 18.7951 7.49185C18.4753 7.6243 18.1235 7.65896 17.784 7.59144C17.4445 7.52391 17.1327 7.35724 16.888 7.1125C16.6432 6.86776 16.4766 6.55594 16.409 6.21647C16.3415 5.877 16.3762 5.52514 16.5086 5.20537C16.6411 4.88559 16.8654 4.61228 17.1532 4.41999C17.441 4.2277 17.7793 4.12506 18.1254 4.12506C18.5896 4.12506 19.0347 4.30944 19.3629 4.63762C19.691 4.96581 19.8754 5.41093 19.8754 5.87506Z" fill="url(#paint0_linear_2431_4975)"/>
<defs>
<linearGradient id="paint0_linear_2431_4975" x1="0.62542" y1="0.625061" x2="23.3755" y2="23.3751" gradientUnits="userSpaceOnUse">
<stop stop-color="#304FBE"/>
<stop offset="1" stop-color="#182B88"/>
</linearGradient>
</defs>
</svg>
